<?xml version="1.0" encoding="UTF-8" standalone="no"?>
<svg
   width="97.85701"
   height="82.808891"
   viewBox="0 0 25.891333 21.909853"
   version="1.1"
   id="svg8"
   inkscape:version="1.1 (c68e22c387, 2021-05-23)"
   sodipodi:docname="emerald.svg"
   xmlns:inkscape="http://www.inkscape.org/namespaces/inkscape"
   xmlns:sodipodi="http://sodipodi.sourceforge.net/DTD/sodipodi-0.dtd"
   xmlns="http://www.w3.org/2000/svg"
   xmlns:svg="http://www.w3.org/2000/svg"
   xmlns:rdf="http://www.w3.org/1999/02/22-rdf-syntax-ns#"
   xmlns:cc="http://creativecommons.org/ns#"
   xmlns:dc="http://purl.org/dc/elements/1.1/">
  <defs
     id="defs2" />
  <sodipodi:namedview
     borderlayer="true"
     inkscape:showpageshadow="true"
     units="px"
     id="base"
     pagecolor="#5d5d5d"
     bordercolor="#000000"
     borderopacity="1"
     inkscape:pageopacity="0"
     inkscape:pageshadow="2"
     inkscape:zoom="2.8"
     inkscape:cx="71.071429"
     inkscape:cy="6.4285714"
     inkscape:document-units="px"
     inkscape:current-layer="layer1"
     inkscape:document-rotation="0"
     showgrid="false"
     inkscape:pagecheckerboard="false"
     showborder="true"
     fit-margin-top="0"
     fit-margin-left="0"
     fit-margin-right="0"
     fit-margin-bottom="0"
     inkscape:lockguides="true"
     inkscape:window-width="1920"
     inkscape:window-height="986"
     inkscape:window-x="-11"
     inkscape:window-y="-11"
     inkscape:window-maximized="1" />
  <metadata
     id="metadata5">
    <rdf:RDF>
      <cc:Work
         rdf:about="">
        <dc:format>image/svg+xml</dc:format>
        <dc:type
           rdf:resource="http://purl.org/dc/dcmitype/StillImage" />
      </cc:Work>
    </rdf:RDF>
  </metadata>
  <g
     inkscape:label="Layer 1"
     inkscape:groupmode="layer"
     id="layer1"
     transform="translate(94.607567,70.384697)">
    <path
       style="fill:#01a039;fill-opacity:1;stroke-width:0.0238584"
       d="m -93.344007,-56.37759 c -0.876517,-3.287047 -1.279225,-4.827608 -1.263095,-4.831931 0.01309,-0.0035 0.14711,0.0097 0.297957,0.02946 0.15084,0.01969 0.899618,0.109738 1.663945,0.200106 0.764324,0.09037 1.415838,0.168614 1.447805,0.173881 l 0.05812,0.0096 0.975151,3.639308 0.975149,3.639309 -0.04609,0.03534 c -0.04596,0.03525 -1.039124,0.773764 -1.508125,1.121442 -0.135954,0.100792 -0.468034,0.349493 -0.73795,0.552684 -0.269918,0.203197 -0.498547,0.371528 -0.508067,0.374079 -0.0096,0.0026 -0.02872,-0.02287 -0.04269,-0.05652 -0.01389,-0.03366 -0.604353,-2.232682 -1.312092,-4.88675 z m -0.03894,-7.552811 1.13165,-1.963362 0.248564,0.335279 c 0.136706,0.184404 0.259229,0.33615 0.27226,0.337217 0.01309,10e-4 0.02106,0.01072 0.01781,0.02153 -0.0103,0.03421 1.552968,2.108675 1.570986,2.08475 0.0093,-0.01243 -0.187121,0.335003 -0.43666,0.772114 -0.403101,0.706109 -0.460538,0.79494 -0.514966,0.796487 -0.03369,9.1e-4 -0.34261,-0.03233 -0.686475,-0.07396 -0.343868,-0.04163 -0.716919,-0.08622 -0.829006,-0.09908 -0.112084,-0.01285 -0.370459,-0.04411 -0.574159,-0.06946 -0.2037,-0.02535 -0.542496,-0.06647 -0.752877,-0.0914 -0.466932,-0.05534 -0.57434,-0.07014 -0.576852,-0.0795 -0.001,-0.004 0.507303,-0.890748 1.129716,-1.970596 z m 1.893909,13.056238 c 0.02654,-0.01977 0.117195,-0.08961 0.201447,-0.1553 0.08425,-0.06569 0.25528,-0.19453 0.380072,-0.286301 0.25764,-0.189472 0.624634,-0.463379 1.059661,-0.790908 0.163856,-0.123362 0.418117,-0.314781 0.565026,-0.425369 0.338097,-0.254509 0.52142,-0.384903 0.553047,-0.393377 0.01366,-0.0037 0.358762,0.187369 0.766932,0.424488 0.494841,0.287483 0.746422,0.447174 0.755018,0.479262 0.0071,0.02647 -0.0069,0.199811 -0.03102,0.385216 -0.04166,0.319703 -0.221673,1.824859 -0.318804,2.665459 -0.02472,0.213871 -0.05333,0.391105 -0.0636,0.393855 -0.01833,0.0049 -3.662848,-2.092149 -3.830495,-2.204067 l -0.08554,-0.05712 z m 1.533566,-11.056849 0.493302,-0.854787 6.43885,-1.725285 6.43885,-1.725284 0.854408,0.493959 0.85441,0.493961 0.99763,3.723206 0.99763,3.723206 -0.493302,0.854787 -0.493304,0.854788 -6.438849,1.725283 -6.43885,1.725285 -0.854427,-0.493928 -0.854426,-0.493928 -0.99763,-3.723208 -0.99763,-3.723203 z m 5.894108,-6.45303 c 7.235428,-1.938727 7.606936,-2.036098 7.602512,-1.993854 -0.0025,0.02448 -0.0957,0.811083 -0.206992,1.748036 l -0.20236,1.703554 -6.34768,1.700856 -6.347682,1.700856 -0.262072,-0.35601 c -0.14414,-0.195806 -0.277266,-0.374177 -0.29583,-0.396382 -0.0186,-0.02219 -0.278798,-0.369441 -0.578297,-0.771637 -0.299499,-0.402195 -0.631528,-0.846944 -0.737842,-0.988331 -0.106307,-0.14139 -0.201769,-0.268699 -0.212104,-0.282918 -0.01496,-0.02067 1.512078,-0.436033 7.588347,-2.064164 z m -2.800427,19.764014 c 0.0082,-0.07017 0.0241,-0.180042 0.03524,-0.244179 0.01118,-0.06413 0.02469,-0.173404 0.03011,-0.242803 0.0054,-0.0694 0.0216,-0.21273 0.03599,-0.318511 0.01439,-0.105781 0.03889,-0.31236 0.05446,-0.459069 0.01556,-0.146716 0.04399,-0.387823 0.06313,-0.535807 0.042,-0.324388 0.148419,-1.241565 0.163529,-1.409282 l 0.01084,-0.120275 6.352126,-1.702047 6.352129,-1.702048 0.287,0.386288 c 0.157857,0.212457 0.324351,0.43748 0.370002,0.500052 0.04566,0.06256 0.38763,0.519889 0.759953,1.016258 0.372323,0.496369 0.678021,0.90648 0.679324,0.911352 0.0013,0.0048 -3.418641,0.925443 -7.59986,2.045797 -4.181221,1.120355 -7.603749,2.029033 -7.605594,2.019382 -0.0019,-0.0097 0.0034,-0.07503 0.01161,-0.145196 z m 14.121954,-7.940321 c 0.394334,-0.686054 0.449328,-0.770199 0.504041,-0.771245 0.03379,-6.78e-4 0.405898,0.04046 0.826939,0.09137 0.421041,0.05091 0.83413,0.09977 0.917973,0.108591 0.491009,0.05166 1.626845,0.195125 1.655238,0.209063 0.0212,0.01044 -2.209215,3.903795 -2.241314,3.912395 -0.01409,0.0038 -0.277185,-0.336628 -0.545944,-0.706178 -0.09526,-0.130987 -0.418249,-0.56316 -0.792356,-1.060209 -0.123428,-0.163982 -0.268409,-0.358632 -0.322192,-0.432558 -0.05379,-0.07391 -0.175918,-0.234925 -0.271398,-0.357785 l -0.173617,-0.223378 z M -75.9939,-68.050094 c 0.07656,-0.625268 0.146405,-1.216618 0.155213,-1.314106 0.0088,-0.09749 0.02052,-0.189585 0.02601,-0.204644 0.0056,-0.01508 0.02742,-0.184941 0.04871,-0.377511 0.0213,-0.192569 0.0454,-0.351915 0.05358,-0.354107 0.0081,-0.0022 0.897163,0.505095 1.975528,1.127301 1.472346,0.849533 1.951698,1.137123 1.92467,1.154728 -0.01978,0.01296 -0.132974,0.0969 -0.251511,0.186669 -0.118535,0.08978 -0.419337,0.314839 -0.668447,0.500135 -0.249111,0.185294 -0.597863,0.446934 -0.775002,0.581422 -0.177139,0.134489 -0.32785,0.246073 -0.334916,0.247968 -0.0071,0.0019 -0.15547,0.113019 -0.329798,0.246929 -0.174324,0.133911 -0.345911,0.258497 -0.381308,0.276842 -0.06101,0.03162 -0.103124,0.01102 -0.810313,-0.396464 -0.562944,-0.324364 -0.749104,-0.443129 -0.758788,-0.484067 -0.007,-0.02983 0.04981,-0.565834 0.126368,-1.191103 z m 1.932202,2.637109 c 0.042,-0.03334 0.122899,-0.0942 0.1798,-0.135275 0.0569,-0.04107 0.648574,-0.483457 1.314848,-0.983071 0.666271,-0.499615 1.220001,-0.910695 1.230511,-0.913512 0.01048,-0.0028 0.608419,2.194224 1.328688,4.882308 0.720271,2.688083 1.301468,4.889596 1.29149,4.89227 -0.01698,0.0046 -0.668997,-0.06785 -0.781628,-0.0868 -0.02844,-0.0047 -0.303777,-0.03715 -0.611858,-0.07193 -0.308081,-0.03477 -0.594949,-0.06872 -0.637485,-0.07541 -0.110959,-0.01746 -0.700551,-0.08717 -0.968947,-0.114529 -0.125653,-0.01281 -0.251828,-0.02757 -0.280388,-0.0328 -0.02855,-0.0052 -0.08319,-0.01225 -0.121434,-0.01549 l -0.06951,-0.006 -0.975223,-3.639586 -0.975224,-3.639584 z"
       id="path870" />
  </g>
</svg>
