<?xml version="1.0" encoding="UTF-8" standalone="no"?>
<svg
   width="49.999996"
   height="49.999996"
   viewBox="0 0 13.229165 13.229166"
   version="1.1"
   id="svg8"
   inkscape:version="1.1 (c68e22c387, 2021-05-23)"
   sodipodi:docname="fb-black.svg"
   xmlns:inkscape="http://www.inkscape.org/namespaces/inkscape"
   xmlns:sodipodi="http://sodipodi.sourceforge.net/DTD/sodipodi-0.dtd"
   xmlns="http://www.w3.org/2000/svg"
   xmlns:svg="http://www.w3.org/2000/svg"
   xmlns:rdf="http://www.w3.org/1999/02/22-rdf-syntax-ns#"
   xmlns:cc="http://creativecommons.org/ns#"
   xmlns:dc="http://purl.org/dc/elements/1.1/">
  <defs
     id="defs2" />
  <sodipodi:namedview
     borderlayer="true"
     inkscape:showpageshadow="true"
     units="px"
     id="base"
     pagecolor="#5d5d5d"
     bordercolor="#000000"
     borderopacity="1"
     inkscape:pageopacity="0"
     inkscape:pageshadow="2"
     inkscape:zoom="5.6"
     inkscape:cx="38.035714"
     inkscape:cy="25"
     inkscape:document-units="px"
     inkscape:current-layer="layer1"
     inkscape:document-rotation="0"
     showgrid="false"
     inkscape:pagecheckerboard="false"
     showborder="false"
     fit-margin-top="0"
     fit-margin-left="0"
     fit-margin-right="0"
     fit-margin-bottom="0"
     inkscape:window-width="1920"
     inkscape:window-height="986"
     inkscape:window-x="-11"
     inkscape:window-y="-11"
     inkscape:window-maximized="1" />
  <metadata
     id="metadata5">
    <rdf:RDF>
      <cc:Work
         rdf:about="">
        <dc:format>image/svg+xml</dc:format>
        <dc:type
           rdf:resource="http://purl.org/dc/dcmitype/StillImage" />
      </cc:Work>
    </rdf:RDF>
  </metadata>
  <g
     inkscape:label="Layer 1"
     inkscape:groupmode="layer"
     id="layer1"
     transform="translate(-47.813992,-173.30208)">
    <g
       inkscape:export-ydpi="96"
       inkscape:export-xdpi="96"
       id="g4329"
       transform="matrix(0.04600137,0,0,0.04600137,62.8076,171.47562)"
       style="fill:#000000">
      <path
         style="fill:#000000;fill-opacity:1;stroke:none;stroke-width:25;stroke-miterlimit:4;stroke-dasharray:none"
         d="m -950.93555,397.52148 v 45.77149 45.77148 h 118.83203 118.83204 v 49.69727 49.69922 h -100.13477 -100.13281 v 45.51367 45.51562 h 100.13281 100.13477 v 155.02149 155.01953 l 81.3125,-0.17187 c 5.0553,-0.0107 7.2112,-0.0235 11.6875,-0.0332 v -84.47265 -90.81641 -90.81836 -84.48047 -78.31055 -78.3125 -84.27539 c -29.95938,-0.0737 -71.13962,-0.10809 -132.98047,-0.1582 z m 376.17969,0.53907 v 84.33984 l 9.83984,0.0625 4.85743,1.32031 c 17.72976,4.81376 26.74497,16.43368 30.625,39.47852 0.68424,4.06507 0.86533,9.62327 1.04297,31.96875 0.22541,28.38297 -0.0251,34.13873 -1.88477,43.31641 -3.39526,16.75698 -11.14869,27.93008 -23.81445,34.31835 -3.16445,1.59606 -9.58255,3.61477 -14.68555,4.61915 -1.32791,0.26136 -3.10213,0.44837 -5.98047,0.59179 v 85.51172 c 10.18261,0.14889 12.43293,0.38352 15.49805,1.04688 20.0386,4.33666 30.54107,14.0209 36.1582,33.33984 3.79011,13.03574 4.31667,21.65031 4.05664,66.42773 -0.20198,34.77268 -0.25923,36.66559 -1.27539,42.04102 -1.3875,7.33973 -2.6921,11.68264 -4.95898,16.51367 -5.65603,12.05428 -15.19271,18.72582 -30.26172,21.16992 v 0.002 c -2.65263,0.4303 -7.19381,0.61968 -19.2168,0.68945 v 84.34961 c 29.48851,-0.20945 32.52915,-0.70436 42.80664,-2.41211 65.67579,-10.91286 100.92673,-52.15728 105.53125,-123.47266 0.6562,-10.15483 0.65571,-66.93749 0,-77.50781 -2.07311,-33.41567 -9.75382,-58.26131 -23.95898,-77.49805 -4.1963,-5.6827 -14.46339,-15.89378 -19.76172,-19.65429 -6.21925,-4.41419 -13.74757,-8.74962 -19.75781,-11.37696 -3.95815,-1.73026 -5.39273,-2.58971 -5.39258,-3.23242 -4e-5,-0.61073 1.45025,-1.62214 4.79687,-3.34375 9.58213,-4.92956 17.0841,-10.58307 24.97266,-18.81836 16.5075,-17.23309 25.33324,-39.15818 29.13476,-72.37304 0.71381,-6.23694 0.86159,-12.06613 0.86915,-34.56641 0.0123,-31.47545 -0.51844,-39.06829 -3.92969,-56.10156 -5.58996,-27.9137 -18.85555,-51.06118 -37.39258,-65.25391 -15.61395,-11.95468 -36.48965,-20.06497 -60.52344,-23.51367 -8.0654,-1.15736 -10.25703,-1.70208 -37.39453,-1.98242 z"
         transform="scale(0.26458333)"
         id="path4327"
         inkscape:connector-curvature="0" />
    </g>
  </g>
</svg>
