<?xml version="1.0" encoding="UTF-8" standalone="no"?>
<svg
   width="50"
   height="50"
   viewBox="0 0 13.229166 13.229167"
   version="1.1"
   id="svg8"
   inkscape:version="1.1 (c68e22c387, 2021-05-23)"
   sodipodi:docname="favicon.svg"
   xmlns:inkscape="http://www.inkscape.org/namespaces/inkscape"
   xmlns:sodipodi="http://sodipodi.sourceforge.net/DTD/sodipodi-0.dtd"
   xmlns="http://www.w3.org/2000/svg"
   xmlns:svg="http://www.w3.org/2000/svg"
   xmlns:rdf="http://www.w3.org/1999/02/22-rdf-syntax-ns#"
   xmlns:cc="http://creativecommons.org/ns#"
   xmlns:dc="http://purl.org/dc/elements/1.1/">
  <defs
     id="defs2" />
  <sodipodi:namedview
     borderlayer="true"
     inkscape:showpageshadow="true"
     units="px"
     id="base"
     pagecolor="#5d5d5d"
     bordercolor="#000000"
     borderopacity="1"
     inkscape:pageopacity="0"
     inkscape:pageshadow="2"
     inkscape:zoom="7.9195959"
     inkscape:cx="41.416254"
     inkscape:cy="16.162441"
     inkscape:document-units="px"
     inkscape:current-layer="layer1"
     inkscape:document-rotation="0"
     showgrid="false"
     inkscape:pagecheckerboard="false"
     showborder="true"
     fit-margin-top="0"
     fit-margin-left="0"
     fit-margin-right="0"
     fit-margin-bottom="0"
     inkscape:lockguides="true"
     inkscape:window-width="1920"
     inkscape:window-height="986"
     inkscape:window-x="-11"
     inkscape:window-y="-11"
     inkscape:window-maximized="1" />
  <metadata
     id="metadata5">
    <rdf:RDF>
      <cc:Work
         rdf:about="">
        <dc:format>image/svg+xml</dc:format>
        <dc:type
           rdf:resource="http://purl.org/dc/dcmitype/StillImage" />
      </cc:Work>
    </rdf:RDF>
  </metadata>
  <g
     inkscape:label="Layer 1"
     inkscape:groupmode="layer"
     id="layer1"
     transform="translate(94.607567,70.384697)">
    <path
       style="fill:#01a039;fill-opacity:1;stroke-width:0.0130728"
       d="m -88.028933,-57.156546 c -1.864023,-0.0022 -2.736498,-0.0075 -2.736498,-0.01673 4e-6,-0.0074 0.026,-0.07648 0.05785,-0.15352 0.03182,-0.07705 0.18566,-0.460573 0.341883,-0.85229 0.156224,-0.391713 0.29003,-0.72544 0.29735,-0.741612 l 0.01333,-0.0294 h 2.064451 2.064449 l 0.01221,0.02941 c 0.01208,0.02933 0.262162,0.659703 0.379664,0.957236 0.03406,0.08624 0.118599,0.297277 0.187862,0.468951 0.06927,0.171673 0.125936,0.316551 0.125936,0.321952 1.5e-5,0.0054 -0.01617,0.01196 -0.03597,0.01458 -0.01979,0.0026 -1.267388,0.0032 -2.772461,0.0014 z m -4.002959,-1.0505 -0.878651,-0.877379 0.2127,-0.08401 c 0.116988,-0.04621 0.214676,-0.08953 0.217088,-0.09628 0.0025,-0.0068 0.0087,-0.0097 0.01393,-0.0064 0.01665,0.0103 1.336283,-0.522887 1.326175,-0.535816 -0.0053,-0.0067 0.150769,0.146545 0.346728,0.340607 0.316552,0.313484 0.355423,0.356481 0.348523,0.385508 -0.0042,0.01796 -0.0657,0.176746 -0.136498,0.352838 -0.0708,0.176094 -0.147304,0.367212 -0.170006,0.424713 -0.0227,0.05751 -0.07588,0.189815 -0.118183,0.294031 -0.04231,0.10421 -0.112118,0.277698 -0.155145,0.385509 -0.09551,0.239284 -0.118575,0.294032 -0.123883,0.294034 -0.0022,-3.8e-5 -0.399499,-0.394821 -0.882756,-0.877382 z m 7.178794,0.849205 c -0.0067,-0.01685 -0.0308,-0.07474 -0.05362,-0.128643 -0.02283,-0.0539 -0.06676,-0.162697 -0.09763,-0.24176 -0.06374,-0.16323 -0.156667,-0.396312 -0.268323,-0.673006 -0.04206,-0.104222 -0.107309,-0.265935 -0.145003,-0.359371 -0.08676,-0.215036 -0.12977,-0.330555 -0.129769,-0.348496 -2.1e-5,-0.0078 0.150046,-0.163309 0.33343,-0.345711 0.222331,-0.221133 0.342528,-0.331637 0.36073,-0.331636 0.01502,-5e-6 0.104771,0.03198 0.199482,0.07105 0.163299,0.06738 0.934397,0.376117 1.365522,0.546736 0.10969,0.04341 0.199435,0.08369 0.199433,0.08952 -6e-6,0.01037 -1.62675,1.641915 -1.70976,1.714773 l -0.04237,0.03717 z m -5.634516,-2.379702 -0.382451,-0.382309 v -3.65253 -3.652529 l 0.382604,-0.382158 0.382605,-0.382156 h 2.112042 2.112042 l 0.38245,0.382309 0.382452,0.382311 -10e-7,3.65253 v 3.65253 l -0.38259,0.38217 -0.38259,0.382171 -2.112044,-10e-7 -2.112039,10e-7 z m -2.579483,-4.034686 c 0,-4.1044 0.0011,-4.314836 0.02289,-4.306503 0.01261,0.0048 0.415708,0.165675 0.89582,0.357453 l 0.872934,0.348694 v 3.600812 3.600814 l -0.22559,0.08822 c -0.124075,0.04852 -0.23736,0.09368 -0.251744,0.100356 -0.01439,0.0067 -0.235071,0.09517 -0.490412,0.196642 -0.255342,0.101479 -0.537819,0.214136 -0.627727,0.250353 -0.0899,0.03621 -0.170827,0.06868 -0.179819,0.07213 -0.01306,0.005 -0.01635,-0.862126 -0.01635,-4.308976 z m 10.063252,4.285022 c -0.03598,-0.01429 -0.09187,-0.03829 -0.124238,-0.05328 -0.03235,-0.01501 -0.08827,-0.03766 -0.124237,-0.05037 -0.03597,-0.0127 -0.109531,-0.0416 -0.163472,-0.06422 -0.05394,-0.02261 -0.159805,-0.06487 -0.235247,-0.09392 -0.07545,-0.02905 -0.199023,-0.07827 -0.274629,-0.109397 -0.165732,-0.06823 -0.63607,-0.254627 -0.722694,-0.28641 l -0.06212,-0.02279 v -3.603334 -3.603336 l 0.24515,-0.09712 c 0.134832,-0.05342 0.277541,-0.109628 0.317133,-0.124913 0.03958,-0.0153 0.33013,-0.131431 0.645643,-0.258096 0.315513,-0.126664 0.575922,-0.230298 0.578685,-0.230298 0.0027,-6e-6 0.005,1.94061 0.005,4.312466 0,2.371858 -0.0044,4.312146 -0.0098,4.311754 -0.0054,-3.7e-4 -0.03922,-0.01243 -0.0752,-0.02673 z m -2.199813,-8.600318 c -0.307181,-0.306001 -0.343917,-0.347041 -0.336711,-0.376147 0.0044,-0.01797 0.07897,-0.209089 0.165631,-0.424713 0.08666,-0.215621 0.171099,-0.427326 0.187657,-0.470449 0.09698,-0.252548 0.333985,-0.833361 0.345391,-0.846412 0.0085,-0.0098 1.752837,1.722881 1.752837,1.741089 1.4e-5,0.008 -0.217474,0.09897 -0.451178,0.188803 -0.08284,0.03184 -0.357376,0.141497 -0.6735,0.26901 -0.104296,0.04207 -0.227876,0.0912 -0.27463,0.109178 -0.04674,0.01798 -0.149286,0.05978 -0.227851,0.0929 l -0.142849,0.06022 z m -6.542597,0.09284 c -0.320074,-0.129194 -0.623149,-0.250023 -0.673498,-0.268511 -0.05036,-0.01848 -0.09742,-0.03775 -0.104625,-0.04279 -0.0072,-0.0052 -0.09399,-0.04074 -0.192895,-0.07931 -0.09891,-0.03858 -0.179818,-0.07394 -0.179818,-0.07857 -1.6e-5,-0.0046 0.39456,-0.403206 0.876803,-0.885709 0.658429,-0.658783 0.878621,-0.871701 0.884106,-0.8549 0.004,0.0123 0.03243,0.08412 0.06313,0.159588 0.0307,0.07547 0.107163,0.266589 0.169908,0.424712 0.06274,0.158124 0.151759,0.379811 0.197817,0.492637 0.04605,0.112826 0.08374,0.208417 0.08374,0.212425 0,0.004 0.03777,0.09832 0.08392,0.209568 0.04616,0.111252 0.08776,0.219738 0.09245,0.241074 0.008,0.03678 -0.0088,0.05614 -0.324749,0.372646 -0.251508,0.251945 -0.340767,0.333631 -0.363809,0.332951 -0.01678,-5.26e-4 -0.292412,-0.106602 -0.612487,-0.2358 z m 1.669748,-0.648663 c -0.01171,-0.02696 -0.03243,-0.07841 -0.04609,-0.114352 -0.01367,-0.03594 -0.163898,-0.41183 -0.333838,-0.835318 -0.169941,-0.423487 -0.308984,-0.774855 -0.308984,-0.780816 4e-6,-0.006 1.247611,-0.01086 2.772463,-0.01086 1.524854,-10e-7 2.772461,0.0046 2.772461,0.0103 2.7e-5,0.0097 -0.130785,0.344455 -0.156788,0.40138 -0.0065,0.01439 -0.06274,0.155509 -0.12484,0.313633 -0.06209,0.158126 -0.120747,0.30514 -0.130319,0.326704 -0.02497,0.05625 -0.145485,0.358415 -0.198028,0.496587 -0.02459,0.06469 -0.05031,0.129374 -0.05713,0.143749 -0.0068,0.01438 -0.01828,0.04228 -0.02542,0.06207 l -0.01303,0.03594 -2.064608,-10e-7 -2.064605,10e-7 z"
       id="path870" />
  </g>
</svg>
